<?xml version="1.0" encoding="UTF-8"?>
<svg xmlns="http://www.w3.org/2000/svg" height="16px" viewBox="0 0 16 16" width="16px"><path d="m 7 1 c -1.105469 0 -2 0.894531 -2 2 v 6.269531 c -1.175781 0.871094 -2 2.253907 -2 3.730469 0 2.210938 1.789062 4 4 4 2.210938 0 4 -1.789062 4 -4 0 -1.476562 -0.824219 -2.859375 -2 -3.730469 v -6.269531 c 0 -1.105469 -0.894531 -2 -2 -2 z m 0 2 h 2 v 7 l 0.539062 0.34375 c 0.882813 0.5625 1.460938 1.601562 1.460938 2.65625 0 1.667969 -1.332031 3 -3 3 -1.667969 0 -3 -1.332031 -3 -3 0 -1.054688 0.578125 -2.09375 1.460938 -2.65625 l 0.539062 -0.34375 z m 0 0"/><path d="m 8 8 h -1 v 2.535156 c -0.582031 0.207032 -1 0.761719 -1 1.464844 0 0.828125 0.671875 1.5 1.5 1.5 s 1.5 -0.671875 1.5 -1.5 c 0 -0.703125 -0.417969 -1.257812 -1 -1.464844 z m 0 0"/></svg>
